<svg xmlns="http://www.w3.org/2000/svg" xmlns:xlink="http://www.w3.org/1999/xlink" width="1080" zoomAndPan="magnify" viewBox="0 0 810 809.999993" height="1080" preserveAspectRatio="xMidYMid meet" version="1.0"><defs><clipPath id="501278f6ca"><path d="M 243 204.769531 L 567 204.769531 L 567 474.019531 L 243 474.019531 Z M 243 204.769531 " clip-rule="nonzero"/></clipPath></defs><rect x="-81" width="972" fill="#ffffff" y="-80.999999" height="971.999992" fill-opacity="1"/><rect x="-81" width="972" fill="#ffffff" y="-80.999999" height="971.999992" fill-opacity="1"/><g clip-path="url(#501278f6ca)"><path fill="#000000" d="M 565.714844 309.640625 C 564.097656 304.863281 559.523438 301.835938 554.542969 302.238281 L 502.453125 306.277344 C 494.777344 306.882812 486.972656 307.824219 479.367188 309.105469 L 426.335938 317.855469 L 405 317.855469 C 390.867188 317.855469 376.597656 316.644531 362.667969 314.355469 L 330.632812 309.035156 C 323.027344 307.757812 315.289062 306.816406 307.546875 306.210938 L 283.859375 304.390625 L 283.859375 296.316406 L 308.085938 296.316406 C 309.566406 296.316406 310.777344 295.101562 310.777344 293.621094 L 310.777344 266.695312 C 310.777344 265.214844 309.566406 264.003906 308.085938 264.003906 C 306.605469 264.003906 305.394531 265.214844 305.394531 266.695312 L 305.394531 280.160156 L 283.859375 280.160156 L 283.859375 272.082031 C 283.859375 270.601562 282.648438 269.390625 281.167969 269.390625 L 281.167969 231.695312 C 281.167969 225.769531 286.011719 220.925781 291.933594 220.925781 C 297.855469 220.925781 302.703125 225.769531 302.703125 231.695312 L 302.703125 234.386719 C 302.703125 235.867188 303.914062 237.078125 305.394531 237.078125 L 316.164062 237.078125 C 317.644531 237.078125 318.855469 235.867188 318.855469 234.386719 L 318.855469 231.695312 C 318.855469 216.820312 306.808594 204.769531 291.933594 204.769531 C 277.0625 204.769531 265.015625 216.820312 265.015625 231.695312 L 265.015625 269.390625 C 263.535156 269.390625 262.324219 270.601562 262.324219 272.082031 L 262.324219 302.710938 L 255.457031 302.171875 C 250.476562 301.765625 245.832031 304.863281 244.285156 309.574219 C 243.207031 312.804688 243.679688 316.238281 245.5625 319.066406 C 247.449219 321.894531 250.476562 323.644531 253.84375 323.914062 L 259.832031 324.316406 L 288.636719 410.746094 C 292.070312 420.976562 298.597656 429.996094 307.210938 436.460938 C 306.066406 438.277344 305.328125 440.496094 305.328125 442.855469 C 305.328125 444.132812 305.53125 445.410156 305.933594 446.625 L 309.703125 457.863281 C 305.730469 458.335938 302.636719 461.769531 302.636719 465.875 C 302.636719 470.316406 306.269531 473.953125 310.710938 473.953125 L 318.585938 473.953125 C 323.164062 473.953125 326.863281 470.25 326.863281 465.671875 L 326.863281 452.480469 C 330.902344 452.480469 334.402344 450.257812 336.21875 447.027344 C 337.160156 447.09375 338.035156 447.09375 338.976562 447.09375 L 473.714844 447.09375 C 475.597656 450.324219 479.03125 452.480469 483 452.480469 L 483 465.738281 C 483 470.316406 486.703125 474.019531 491.28125 474.019531 L 499.222656 474.019531 C 503.664062 474.019531 507.296875 470.382812 507.296875 465.941406 C 507.296875 461.835938 504.203125 458.402344 500.230469 457.933594 L 504 446.691406 C 504.402344 445.480469 504.605469 444.199219 504.605469 442.921875 C 504.605469 441.640625 504.402344 440.429688 504.066406 439.285156 C 514.765625 432.757812 522.777344 422.726562 526.746094 410.746094 L 555.6875 323.980469 L 556.15625 323.914062 C 559.523438 323.644531 562.550781 321.894531 564.433594 319.066406 C 566.320312 316.238281 566.792969 312.875 565.714844 309.640625 Z M 305.394531 290.929688 L 300.011719 290.929688 L 300.011719 285.542969 L 305.394531 285.542969 Z M 294.625 285.542969 L 294.625 290.929688 L 283.859375 290.929688 L 283.859375 285.542969 Z M 270.398438 231.695312 C 270.398438 219.847656 280.089844 210.15625 291.933594 210.15625 C 303.78125 210.15625 313.472656 219.847656 313.472656 231.695312 L 308.085938 231.695312 C 308.085938 222.808594 300.820312 215.539062 291.933594 215.539062 C 283.050781 215.539062 275.78125 222.808594 275.78125 231.695312 L 275.78125 269.390625 L 270.398438 269.390625 Z M 267.707031 274.773438 L 278.472656 274.773438 L 278.472656 303.988281 L 267.707031 303.179688 Z M 326.929688 447.09375 L 324.238281 447.09375 C 322.757812 447.09375 321.546875 448.304688 321.546875 449.789062 L 321.546875 465.738281 C 321.546875 467.355469 320.269531 468.632812 318.652344 468.632812 L 310.777344 468.632812 C 309.296875 468.632812 308.085938 467.421875 308.085938 465.941406 C 308.085938 464.460938 309.296875 463.25 310.777344 463.25 L 313.472656 463.25 C 314.347656 463.25 315.152344 462.847656 315.625 462.105469 C 316.09375 461.363281 316.296875 460.488281 315.960938 459.683594 L 311.046875 444.941406 C 310.847656 444.265625 310.710938 443.59375 310.710938 442.855469 C 310.710938 439.21875 313.671875 436.257812 317.308594 436.257812 L 326.929688 436.257812 C 329.890625 436.257812 332.316406 438.679688 332.316406 441.640625 C 332.316406 444.605469 329.890625 447.09375 326.929688 447.09375 Z M 501.914062 465.941406 C 501.914062 467.421875 500.703125 468.632812 499.222656 468.632812 L 491.347656 468.632812 C 489.730469 468.632812 488.453125 467.355469 488.453125 465.738281 L 488.453125 449.789062 C 488.453125 448.304688 487.242188 447.09375 485.761719 447.09375 L 483.070312 447.09375 C 480.109375 447.09375 477.683594 444.671875 477.683594 441.710938 C 477.683594 438.746094 480.109375 436.324219 483.070312 436.324219 L 492.625 436.324219 C 496.261719 436.324219 499.222656 439.285156 499.222656 442.921875 C 499.222656 443.660156 499.085938 444.335938 498.882812 445.007812 L 493.972656 459.75 C 493.703125 460.558594 493.835938 461.5 494.308594 462.171875 C 494.777344 462.847656 495.652344 463.316406 496.460938 463.316406 L 499.152344 463.316406 C 500.703125 463.25 501.914062 464.460938 501.914062 465.941406 Z M 521.632812 409.0625 C 518.066406 419.765625 510.863281 428.785156 501.308594 434.640625 C 499.152344 432.351562 496.058594 430.941406 492.691406 430.941406 L 483.070312 430.941406 C 477.144531 430.941406 472.300781 435.785156 472.300781 441.710938 L 339.046875 441.710938 C 338.574219 441.710938 338.171875 441.710938 337.699219 441.710938 C 337.699219 435.785156 332.855469 430.941406 326.929688 430.941406 L 317.375 430.941406 C 315.085938 430.941406 313 431.613281 311.183594 432.691406 C 303.105469 426.832031 296.980469 418.554688 293.820312 409.0625 L 265.6875 324.855469 L 306.472656 327.75 C 314.480469 328.289062 322.554688 329.296875 330.429688 330.578125 L 361.726562 335.828125 C 375.992188 338.183594 390.53125 339.394531 404.933594 339.394531 C 419.335938 339.394531 433.9375 338.183594 448.140625 335.828125 L 479.433594 330.578125 C 487.375 329.230469 495.453125 328.289062 503.394531 327.75 L 549.695312 324.453125 Z M 559.992188 316.171875 C 559.050781 317.585938 557.503906 318.527344 555.753906 318.59375 L 503.125 322.363281 C 494.980469 322.96875 486.703125 323.914062 478.628906 325.257812 L 447.332031 330.507812 C 433.402344 332.867188 419.132812 334.007812 405 334.007812 C 390.867188 334.007812 376.597656 332.796875 362.667969 330.507812 L 331.371094 325.257812 C 323.296875 323.914062 315.019531 322.902344 306.875 322.363281 L 254.246094 318.59375 C 252.496094 318.460938 251.015625 317.585938 250.007812 316.171875 C 249.0625 314.757812 248.792969 313.007812 249.332031 311.324219 C 250.074219 309.035156 252.226562 307.554688 254.582031 307.554688 C 254.71875 307.554688 254.851562 307.554688 254.988281 307.554688 L 307.078125 311.59375 C 314.613281 312.199219 322.21875 313.074219 329.691406 314.355469 L 361.726562 319.671875 C 375.992188 322.027344 390.53125 323.238281 404.933594 323.238281 L 426.46875 323.238281 C 426.605469 323.238281 426.738281 323.238281 426.941406 323.171875 L 480.175781 314.285156 C 487.644531 313.074219 495.25 312.132812 502.789062 311.527344 L 554.878906 307.488281 C 557.4375 307.285156 559.722656 308.835938 560.53125 311.257812 C 561.136719 313.007812 560.9375 314.757812 559.992188 316.171875 Z M 559.992188 316.171875 " fill-opacity="1" fill-rule="nonzero"/></g></svg>