<svg xmlns="http://www.w3.org/2000/svg" xmlns:xlink="http://www.w3.org/1999/xlink" width="1080" zoomAndPan="magnify" viewBox="0 0 810 809.999993" height="1080" preserveAspectRatio="xMidYMid meet" version="1.0"><defs><clipPath id="f04116a6d1"><path d="M 324.152344 293 L 441.902344 293 L 441.902344 404.945312 L 324.152344 404.945312 Z M 324.152344 293 " clip-rule="nonzero"/></clipPath></defs><rect x="-81" width="972" fill="#ffffff" y="-80.999999" height="971.999992" fill-opacity="1"/><rect x="-81" width="972" fill="#050a30" y="-80.999999" height="971.999992" fill-opacity="1"/><g clip-path="url(#f04116a6d1)"><path fill="#ffffff" d="M 328.332031 360.441406 L 438.230469 360.648438 C 438.136719 366.746094 436.980469 383.574219 424.148438 393.183594 C 421.261719 395.292969 418.070312 396.726562 414.574219 397.480469 C 414.640625 397.632812 414.683594 397.789062 414.695312 397.953125 L 414.695312 403.085938 C 414.660156 403.355469 414.578125 403.605469 414.445312 403.835938 C 414.316406 404.070312 414.144531 404.273438 413.933594 404.4375 C 413.722656 404.605469 413.492188 404.726562 413.234375 404.804688 C 412.976562 404.878906 412.714844 404.90625 412.445312 404.878906 L 410.667969 404.878906 C 410.402344 404.90625 410.140625 404.878906 409.882812 404.804688 C 409.625 404.726562 409.390625 404.605469 409.179688 404.4375 C 408.972656 404.273438 408.800781 404.070312 408.667969 403.835938 C 408.535156 403.605469 408.453125 403.355469 408.417969 403.085938 L 408.417969 398.519531 C 400.300781 399.167969 392.171875 399.398438 384.03125 399.214844 C 375.386719 399.394531 366.761719 399.125 358.144531 398.410156 L 358.144531 403.085938 C 358.109375 403.355469 358.027344 403.605469 357.894531 403.835938 C 357.765625 404.070312 357.59375 404.273438 357.382812 404.4375 C 357.175781 404.605469 356.941406 404.726562 356.683594 404.804688 C 356.425781 404.878906 356.164062 404.90625 355.894531 404.878906 L 354.121094 404.878906 C 353.851562 404.90625 353.589844 404.878906 353.332031 404.804688 C 353.074219 404.726562 352.84375 404.605469 352.632812 404.441406 C 352.421875 404.273438 352.25 404.070312 352.117188 403.835938 C 351.988281 403.605469 351.902344 403.355469 351.871094 403.085938 L 351.871094 397.953125 C 351.875 397.742188 351.925781 397.542969 352.023438 397.355469 C 348.199219 396.519531 344.734375 394.902344 341.636719 392.511719 C 329.585938 382.996094 328.378906 367.132812 328.332031 360.441406 Z M 436.515625 347.164062 L 434.101562 347.164062 C 434.078125 340.054688 434.085938 332.949219 434.132812 325.839844 C 434.433594 319.160156 434.207031 312.5 433.460938 305.855469 C 433.289062 303.824219 432.714844 301.917969 431.734375 300.132812 C 430.753906 298.347656 429.449219 296.839844 427.824219 295.609375 C 421.949219 291.648438 414.074219 292.425781 410.109375 298.371094 C 405.359375 297.84375 400.285156 300.382812 399.886719 302.753906 C 399.507812 304.960938 403.082031 307.3125 407.039062 309.910156 C 411.042969 312.539062 415.007812 315.140625 417.054688 313.792969 C 419.101562 312.441406 419.398438 306.984375 417.105469 302.953125 C 417.378906 302.570312 417.710938 302.253906 418.105469 301.996094 C 418.496094 301.742188 418.921875 301.566406 419.382812 301.472656 C 419.839844 301.378906 420.300781 301.375 420.765625 301.453125 C 421.226562 301.535156 421.65625 301.695312 422.058594 301.941406 C 422.605469 302.179688 423.125 302.472656 423.613281 302.816406 C 422.75 302.238281 423.703125 303.152344 423.992188 303.351562 C 424.128906 303.695312 424.308594 304.015625 424.53125 304.3125 C 424.738281 304.882812 424.914062 305.46875 425.054688 306.0625 C 425.445312 307.828125 425.65625 309.617188 425.679688 311.425781 C 426.289062 323.300781 425.808594 335.265625 425.769531 347.164062 L 329.328125 347.164062 C 329.042969 347.144531 328.761719 347.148438 328.480469 347.179688 C 328.199219 347.214844 327.921875 347.273438 327.652344 347.359375 C 327.382812 347.445312 327.125 347.554688 326.875 347.691406 C 326.625 347.828125 326.394531 347.988281 326.175781 348.167969 C 325.957031 348.351562 325.757812 348.550781 325.582031 348.773438 C 325.402344 348.992188 325.246094 349.226562 325.113281 349.476562 C 324.980469 349.726562 324.871094 349.988281 324.789062 350.261719 C 324.707031 350.53125 324.652344 350.808594 324.625 351.089844 C 324.652344 351.371094 324.707031 351.648438 324.789062 351.921875 C 324.871094 352.191406 324.980469 352.453125 325.113281 352.703125 C 325.246094 352.953125 325.402344 353.1875 325.582031 353.410156 C 325.757812 353.628906 325.957031 353.832031 326.175781 354.011719 C 326.390625 354.195312 326.625 354.351562 326.875 354.488281 C 327.121094 354.625 327.382812 354.738281 327.652344 354.824219 C 327.921875 354.910156 328.199219 354.96875 328.480469 355 C 328.761719 355.035156 329.042969 355.039062 329.328125 355.015625 L 436.515625 355.015625 C 436.800781 355.039062 437.082031 355.035156 437.363281 355 C 437.644531 354.96875 437.921875 354.910156 438.191406 354.824219 C 438.460938 354.738281 438.71875 354.625 438.96875 354.488281 C 439.21875 354.351562 439.449219 354.195312 439.667969 354.011719 C 439.886719 353.832031 440.085938 353.628906 440.261719 353.410156 C 440.441406 353.1875 440.597656 352.953125 440.730469 352.703125 C 440.863281 352.453125 440.972656 352.191406 441.054688 351.921875 C 441.136719 351.648438 441.191406 351.371094 441.21875 351.089844 C 441.191406 350.808594 441.136719 350.53125 441.054688 350.257812 C 440.972656 349.988281 440.863281 349.726562 440.730469 349.476562 C 440.597656 349.226562 440.441406 348.992188 440.261719 348.769531 C 440.085938 348.550781 439.886719 348.347656 439.667969 348.167969 C 439.449219 347.984375 439.21875 347.828125 438.96875 347.691406 C 438.71875 347.554688 438.460938 347.441406 438.191406 347.355469 C 437.921875 347.269531 437.644531 347.210938 437.363281 347.179688 C 437.082031 347.144531 436.800781 347.140625 436.515625 347.164062 Z M 407.992188 325.832031 C 408.300781 326.109375 408.652344 326.296875 409.058594 326.390625 L 409.894531 326.503906 C 410.457031 326.503906 410.984375 326.359375 411.472656 326.074219 C 412.195312 325.636719 412.675781 325.007812 412.910156 324.195312 L 413.773438 321.042969 C 413.90625 320.628906 413.925781 320.210938 413.828125 319.789062 C 413.753906 318.925781 413.359375 318.246094 412.652344 317.75 C 412.347656 317.46875 411.992188 317.28125 411.585938 317.1875 L 410.753906 317.074219 C 410.1875 317.074219 409.660156 317.21875 409.171875 317.503906 C 408.449219 317.941406 407.972656 318.570312 407.734375 319.382812 L 406.871094 322.535156 C 406.738281 322.949219 406.722656 323.367188 406.816406 323.789062 C 406.835938 324.210938 406.960938 324.597656 407.1875 324.949219 C 407.378906 325.3125 407.648438 325.605469 407.992188 325.832031 Z M 404.175781 332.398438 L 403.3125 335.554688 C 403.179688 335.964844 403.160156 336.382812 403.257812 336.804688 C 403.277344 337.226562 403.398438 337.613281 403.628906 337.96875 C 404.082031 338.671875 404.707031 339.152344 405.507812 339.40625 L 406.339844 339.519531 C 406.90625 339.519531 407.433594 339.382812 407.921875 339.101562 C 408.644531 338.660156 409.121094 338.035156 409.359375 337.222656 L 410.222656 334.066406 C 410.355469 333.65625 410.375 333.238281 410.277344 332.816406 C 410.199219 331.953125 409.808594 331.273438 409.101562 330.777344 C 408.792969 330.496094 408.441406 330.308594 408.035156 330.214844 L 407.199219 330.105469 C 406.636719 330.101562 406.109375 330.238281 405.621094 330.519531 C 404.894531 330.960938 404.414062 331.585938 404.175781 332.398438 Z M 404.144531 313.125 L 403.519531 312.632812 C 403.03125 312.347656 402.507812 312.207031 401.941406 312.207031 L 401.105469 312.320312 C 400.574219 312.464844 400.117188 312.734375 399.726562 313.125 L 397.640625 315.644531 C 397.335938 315.921875 397.121094 316.257812 396.992188 316.652344 C 396.617188 317.457031 396.617188 318.261719 396.992188 319.0625 C 397.121094 319.457031 397.335938 319.792969 397.640625 320.070312 L 398.265625 320.558594 C 398.753906 320.84375 399.28125 320.984375 399.847656 320.976562 L 400.679688 320.867188 C 401.210938 320.722656 401.671875 320.453125 402.0625 320.0625 L 404.148438 317.542969 C 404.453125 317.261719 404.667969 316.925781 404.796875 316.535156 C 405.171875 315.730469 405.171875 314.925781 404.796875 314.125 C 404.667969 313.734375 404.449219 313.398438 404.144531 313.125 Z M 389.042969 330.46875 L 389.667969 330.957031 C 390.15625 331.238281 390.683594 331.378906 391.246094 331.375 L 392.082031 331.265625 C 392.617188 331.121094 393.082031 330.855469 393.476562 330.46875 C 394.171875 329.632812 394.871094 328.792969 395.566406 327.949219 C 395.867188 327.667969 396.085938 327.332031 396.210938 326.941406 C 396.589844 326.136719 396.589844 325.332031 396.210938 324.527344 C 396.085938 324.136719 395.867188 323.800781 395.566406 323.519531 L 394.9375 323.03125 C 394.449219 322.746094 393.925781 322.605469 393.359375 322.605469 L 392.523438 322.71875 C 391.992188 322.863281 391.53125 323.132812 391.144531 323.519531 L 389.058594 326.042969 C 388.753906 326.320312 388.539062 326.65625 388.410156 327.050781 C 388.03125 327.851562 388.03125 328.65625 388.410156 329.460938 C 388.535156 329.851562 388.746094 330.1875 389.042969 330.46875 Z M 389.679688 311.785156 L 390.167969 312.410156 C 390.558594 312.800781 391.019531 313.066406 391.550781 313.214844 L 392.386719 313.328125 C 392.949219 313.328125 393.476562 313.183594 393.964844 312.898438 L 396.769531 311.21875 C 397.132812 311.027344 397.425781 310.761719 397.652344 310.417969 C 397.933594 310.113281 398.117188 309.757812 398.210938 309.355469 C 398.34375 308.941406 398.363281 308.523438 398.265625 308.101562 C 398.25 307.679688 398.125 307.292969 397.894531 306.941406 L 397.40625 306.3125 C 397.015625 305.921875 396.558594 305.65625 396.027344 305.507812 L 395.191406 305.394531 C 394.625 305.394531 394.097656 305.539062 393.613281 305.824219 L 390.808594 307.507812 C 390.445312 307.699219 390.152344 307.96875 389.929688 308.3125 C 389.648438 308.617188 389.460938 308.972656 389.367188 309.375 C 389.234375 309.789062 389.21875 310.207031 389.3125 310.628906 C 389.332031 311.046875 389.453125 311.433594 389.679688 311.785156 Z M 378.109375 318.722656 L 378.601562 319.351562 C 378.992188 319.738281 379.453125 320.007812 379.984375 320.15625 L 380.816406 320.265625 C 381.382812 320.269531 381.90625 320.132812 382.398438 319.847656 L 385.199219 318.164062 C 385.5625 317.972656 385.855469 317.703125 386.078125 317.359375 C 386.648438 316.6875 386.859375 315.917969 386.707031 315.046875 C 386.6875 314.625 386.5625 314.238281 386.332031 313.882812 L 385.84375 313.257812 C 385.453125 312.867188 384.992188 312.601562 384.460938 312.453125 L 383.628906 312.339844 C 383.0625 312.339844 382.535156 312.484375 382.046875 312.769531 L 379.242188 314.449219 C 378.878906 314.644531 378.589844 314.914062 378.367188 315.257812 C 377.792969 315.929688 377.585938 316.699219 377.738281 317.570312 C 377.761719 317.988281 377.882812 318.371094 378.109375 318.722656 Z M 378.109375 318.722656 " fill-opacity="1" fill-rule="nonzero"/></g></svg>