<svg xmlns="http://www.w3.org/2000/svg" xmlns:xlink="http://www.w3.org/1999/xlink" width="1080" zoomAndPan="magnify" viewBox="0 0 810 809.999993" height="1080" preserveAspectRatio="xMidYMid meet" version="1.0"><defs><clipPath id="5127f39d19"><path d="M 350.527344 300.019531 L 459.277344 300.019531 L 459.277344 405 L 350.527344 405 Z M 350.527344 300.019531 " clip-rule="nonzero"/></clipPath></defs><rect x="-81" width="972" fill="#ffffff" y="-80.999999" height="971.999992" fill-opacity="1"/><rect x="-81" width="972" fill="#050a30" y="-80.999999" height="971.999992" fill-opacity="1"/><g clip-path="url(#5127f39d19)"><path fill="#ffffff" d="M 459.171875 304.597656 L 459.171875 399.640625 C 459.1875 400.167969 459.109375 400.683594 458.949219 401.1875 C 458.785156 401.691406 458.546875 402.15625 458.226562 402.578125 C 457.910156 403 457.53125 403.359375 457.089844 403.652344 C 456.648438 403.949219 456.171875 404.164062 455.660156 404.296875 C 454.890625 404.476562 454.121094 404.457031 453.359375 404.238281 C 452.597656 404.019531 451.933594 403.632812 451.375 403.074219 C 450.480469 402.183594 450.035156 401.113281 450.035156 399.851562 L 450.035156 309.136719 L 360 309.136719 L 360 399.269531 C 360.023438 399.824219 359.957031 400.367188 359.800781 400.898438 C 359.644531 401.429688 359.40625 401.921875 359.085938 402.375 C 358.765625 402.828125 358.382812 403.21875 357.933594 403.542969 C 357.484375 403.867188 356.996094 404.113281 356.46875 404.277344 C 355.691406 404.472656 354.917969 404.453125 354.152344 404.21875 C 353.386719 403.988281 352.734375 403.574219 352.199219 402.976562 C 351.300781 401.992188 350.855469 400.835938 350.859375 399.503906 L 350.859375 303.589844 C 351.042969 302.722656 351.453125 301.980469 352.082031 301.355469 C 352.972656 300.464844 354.042969 300.019531 355.304688 300.019531 L 454.59375 300.019531 C 454.894531 300.019531 455.191406 300.046875 455.488281 300.109375 C 455.78125 300.167969 456.066406 300.253906 456.34375 300.367188 C 456.621094 300.484375 456.886719 300.625 457.136719 300.792969 C 457.386719 300.960938 457.617188 301.148438 457.828125 301.363281 C 458.042969 301.574219 458.230469 301.804688 458.398438 302.054688 C 458.566406 302.304688 458.707031 302.570312 458.824219 302.847656 C 458.9375 303.125 459.023438 303.410156 459.085938 303.703125 C 459.144531 304 459.171875 304.296875 459.171875 304.597656 Z M 443.503906 311.933594 L 366.53125 311.933594 C 366.121094 311.933594 365.726562 312.011719 365.351562 312.167969 C 364.972656 312.324219 364.640625 312.546875 364.351562 312.835938 C 364.058594 313.125 363.835938 313.460938 363.679688 313.835938 C 363.523438 314.214844 363.445312 314.609375 363.445312 315.019531 C 363.445312 315.425781 363.523438 315.820312 363.679688 316.199219 C 363.835938 316.574219 364.058594 316.910156 364.351562 317.199219 C 364.640625 317.488281 364.972656 317.710938 365.351562 317.867188 C 365.726562 318.023438 366.121094 318.101562 366.53125 318.101562 L 443.503906 318.101562 C 443.910156 318.101562 444.304688 318.023438 444.683594 317.867188 C 445.0625 317.710938 445.394531 317.488281 445.683594 317.199219 C 445.976562 316.910156 446.199219 316.578125 446.355469 316.199219 C 446.511719 315.820312 446.589844 315.425781 446.589844 315.019531 C 446.589844 314.609375 446.511719 314.214844 446.355469 313.835938 C 446.199219 313.457031 445.976562 313.125 445.683594 312.835938 C 445.394531 312.546875 445.0625 312.324219 444.683594 312.167969 C 444.304688 312.011719 443.910156 311.933594 443.503906 311.933594 Z M 443.503906 321.46875 L 366.53125 321.46875 C 366.128906 321.480469 365.742188 321.566406 365.371094 321.726562 C 365.003906 321.886719 364.679688 322.113281 364.398438 322.402344 C 364.117188 322.6875 363.898438 323.019531 363.75 323.390625 C 363.597656 323.765625 363.519531 324.152344 363.519531 324.554688 C 363.519531 324.957031 363.597656 325.347656 363.75 325.71875 C 363.898438 326.09375 364.117188 326.421875 364.398438 326.710938 C 364.679688 327 365.003906 327.222656 365.371094 327.386719 C 365.742188 327.546875 366.128906 327.632812 366.53125 327.640625 L 443.503906 327.640625 C 443.917969 327.652344 444.320312 327.582031 444.707031 327.429688 C 445.09375 327.277344 445.4375 327.054688 445.734375 326.765625 C 446.035156 326.476562 446.261719 326.136719 446.425781 325.753906 C 446.585938 325.371094 446.667969 324.972656 446.667969 324.554688 C 446.667969 324.140625 446.585938 323.738281 446.425781 323.355469 C 446.261719 322.972656 446.035156 322.636719 445.734375 322.34375 C 445.4375 322.054688 445.09375 321.832031 444.707031 321.683594 C 444.320312 321.53125 443.917969 321.460938 443.503906 321.46875 Z M 443.503906 330.601562 L 366.53125 330.601562 C 366.128906 330.609375 365.742188 330.695312 365.371094 330.859375 C 365.003906 331.019531 364.679688 331.242188 364.398438 331.53125 C 364.117188 331.820312 363.898438 332.152344 363.75 332.523438 C 363.597656 332.898438 363.519531 333.285156 363.519531 333.6875 C 363.519531 334.089844 363.597656 334.476562 363.75 334.851562 C 363.898438 335.222656 364.117188 335.554688 364.398438 335.84375 C 364.679688 336.132812 365.003906 336.355469 365.371094 336.515625 C 365.742188 336.679688 366.128906 336.761719 366.53125 336.773438 L 443.503906 336.773438 C 443.917969 336.785156 444.320312 336.714844 444.707031 336.5625 C 445.09375 336.410156 445.4375 336.1875 445.734375 335.898438 C 446.035156 335.605469 446.261719 335.269531 446.425781 334.886719 C 446.585938 334.503906 446.667969 334.105469 446.667969 333.6875 C 446.667969 333.269531 446.585938 332.871094 446.425781 332.488281 C 446.261719 332.105469 446.035156 331.769531 445.734375 331.476562 C 445.4375 331.1875 445.09375 330.964844 444.707031 330.8125 C 444.320312 330.660156 443.917969 330.589844 443.503906 330.601562 Z M 440.351562 375.082031 C 440.695312 375.710938 440.863281 376.378906 440.863281 377.09375 L 440.863281 391.957031 C 440.859375 392.230469 440.832031 392.503906 440.777344 392.777344 C 440.722656 393.046875 440.644531 393.308594 440.535156 393.566406 C 440.429688 393.820312 440.300781 394.0625 440.148438 394.292969 C 439.992188 394.523438 439.820312 394.734375 439.621094 394.929688 C 439.425781 395.125 439.214844 395.300781 438.984375 395.453125 C 438.753906 395.609375 438.511719 395.738281 438.257812 395.84375 C 438.003906 395.949219 437.738281 396.03125 437.46875 396.085938 C 437.199219 396.140625 436.921875 396.167969 436.648438 396.167969 L 432.574219 396.167969 L 432.574219 400.214844 C 432.570312 400.523438 432.542969 400.832031 432.480469 401.136719 C 432.421875 401.4375 432.332031 401.734375 432.210938 402.019531 C 432.09375 402.304688 431.949219 402.578125 431.777344 402.835938 C 431.605469 403.089844 431.40625 403.328125 431.1875 403.546875 C 430.96875 403.765625 430.730469 403.960938 430.472656 404.132812 C 430.21875 404.304688 429.945312 404.449219 429.660156 404.570312 C 429.375 404.6875 429.078125 404.777344 428.773438 404.835938 C 428.472656 404.898438 428.164062 404.929688 427.855469 404.929688 C 427.546875 404.929688 427.238281 404.898438 426.933594 404.835938 C 426.632812 404.777344 426.335938 404.6875 426.050781 404.570312 C 425.765625 404.449219 425.492188 404.304688 425.234375 404.132812 C 424.976562 403.960938 424.742188 403.765625 424.519531 403.546875 C 424.300781 403.328125 424.105469 403.089844 423.933594 402.835938 C 423.761719 402.578125 423.617188 402.304688 423.5 402.019531 C 423.378906 401.734375 423.289062 401.4375 423.230469 401.136719 C 423.167969 400.832031 423.136719 400.523438 423.136719 400.214844 L 423.136719 396.167969 L 387.28125 396.167969 L 387.28125 400.214844 C 387.28125 400.523438 387.253906 400.832031 387.191406 401.136719 C 387.132812 401.441406 387.042969 401.734375 386.925781 402.019531 C 386.804688 402.308594 386.660156 402.578125 386.488281 402.835938 C 386.316406 403.09375 386.121094 403.332031 385.902344 403.550781 C 385.683594 403.769531 385.445312 403.964844 385.1875 404.136719 C 384.929688 404.308594 384.65625 404.457031 384.371094 404.574219 C 384.085938 404.691406 383.789062 404.78125 383.484375 404.84375 C 383.183594 404.902344 382.875 404.933594 382.566406 404.933594 C 382.257812 404.933594 381.949219 404.902344 381.644531 404.84375 C 381.34375 404.78125 381.046875 404.691406 380.761719 404.574219 C 380.472656 404.457031 380.203125 404.308594 379.945312 404.136719 C 379.6875 403.964844 379.449219 403.769531 379.230469 403.550781 C 379.011719 403.332031 378.816406 403.09375 378.644531 402.835938 C 378.472656 402.578125 378.328125 402.308594 378.207031 402.019531 C 378.089844 401.734375 378 401.441406 377.9375 401.136719 C 377.878906 400.832031 377.847656 400.523438 377.847656 400.214844 L 377.847656 396.167969 L 373.398438 396.167969 C 373.121094 396.167969 372.847656 396.140625 372.578125 396.085938 C 372.304688 396.03125 372.042969 395.953125 371.785156 395.84375 C 371.53125 395.738281 371.289062 395.609375 371.058594 395.457031 C 370.828125 395.300781 370.613281 395.128906 370.417969 394.933594 C 370.222656 394.738281 370.046875 394.523438 369.890625 394.292969 C 369.738281 394.066406 369.609375 393.824219 369.5 393.566406 C 369.394531 393.3125 369.3125 393.046875 369.257812 392.777344 C 369.203125 392.507812 369.171875 392.230469 369.171875 391.957031 L 369.171875 377.003906 C 369.191406 376.222656 369.410156 375.503906 369.828125 374.847656 C 370.246094 374.1875 370.804688 373.683594 371.5 373.335938 C 376.183594 365.960938 380.863281 358.578125 385.539062 351.191406 C 386.074219 350.371094 386.597656 349.535156 387.121094 348.699219 C 387.660156 347.851562 388.375 347.183594 389.257812 346.699219 C 390.140625 346.214844 391.085938 345.972656 392.089844 345.972656 L 418.652344 345.972656 C 419.660156 345.972656 420.605469 346.214844 421.488281 346.699219 C 422.371094 347.183594 423.082031 347.851562 423.625 348.699219 C 424.148438 349.535156 424.679688 350.371094 425.203125 351.191406 C 430.175781 359.046875 435.15625 366.898438 440.144531 374.742188 C 440.210938 374.863281 440.289062 374.980469 440.351562 375.082031 Z M 377.96875 372.878906 L 432.785156 372.878906 C 428.773438 366.5625 424.761719 360.246094 420.753906 353.929688 C 420.214844 353.078125 419.503906 352.410156 418.621094 351.921875 C 417.734375 351.4375 416.789062 351.191406 415.78125 351.191406 L 394.96875 351.191406 C 393.960938 351.191406 393.015625 351.4375 392.132812 351.921875 C 391.25 352.410156 390.539062 353.078125 389.996094 353.929688 C 385.976562 360.246094 381.96875 366.5625 377.96875 372.878906 Z M 389.359375 384.523438 C 389.359375 384.144531 389.324219 383.769531 389.25 383.398438 C 389.175781 383.027344 389.066406 382.667969 388.921875 382.320312 C 388.777344 381.96875 388.597656 381.636719 388.390625 381.324219 C 388.179688 381.011719 387.941406 380.71875 387.671875 380.453125 C 387.40625 380.183594 387.117188 379.945312 386.800781 379.734375 C 386.488281 379.527344 386.15625 379.347656 385.804688 379.203125 C 385.457031 379.058594 385.097656 378.949219 384.726562 378.875 C 384.355469 378.804688 383.980469 378.765625 383.605469 378.765625 C 383.226562 378.765625 382.851562 378.804688 382.480469 378.875 C 382.109375 378.949219 381.75 379.058594 381.402344 379.203125 C 381.050781 379.347656 380.722656 379.527344 380.40625 379.734375 C 380.09375 379.945312 379.800781 380.183594 379.535156 380.453125 C 379.265625 380.71875 379.027344 381.011719 378.820312 381.324219 C 378.609375 381.636719 378.429688 381.96875 378.285156 382.320312 C 378.140625 382.667969 378.03125 383.027344 377.960938 383.398438 C 377.886719 383.769531 377.847656 384.144531 377.847656 384.523438 C 377.847656 384.898438 377.886719 385.273438 377.960938 385.644531 C 378.03125 386.015625 378.140625 386.375 378.285156 386.722656 C 378.429688 387.074219 378.609375 387.40625 378.820312 387.71875 C 379.027344 388.03125 379.265625 388.324219 379.535156 388.589844 C 379.800781 388.859375 380.09375 389.097656 380.40625 389.308594 C 380.722656 389.515625 381.050781 389.695312 381.402344 389.839844 C 381.75 389.984375 382.109375 390.09375 382.480469 390.167969 C 382.851562 390.238281 383.226562 390.277344 383.605469 390.277344 C 383.980469 390.277344 384.355469 390.238281 384.726562 390.167969 C 385.097656 390.09375 385.457031 389.984375 385.808594 389.839844 C 386.15625 389.695312 386.488281 389.515625 386.800781 389.304688 C 387.117188 389.097656 387.40625 388.855469 387.675781 388.589844 C 387.941406 388.324219 388.179688 388.03125 388.390625 387.71875 C 388.601562 387.402344 388.777344 387.070312 388.921875 386.722656 C 389.066406 386.371094 389.175781 386.011719 389.25 385.640625 C 389.324219 385.269531 389.359375 384.894531 389.359375 384.519531 Z M 433.601562 384.523438 C 433.601562 384.144531 433.5625 383.769531 433.488281 383.398438 C 433.417969 383.027344 433.308594 382.667969 433.164062 382.320312 C 433.019531 381.96875 432.839844 381.636719 432.628906 381.324219 C 432.421875 381.011719 432.183594 380.71875 431.914062 380.453125 C 431.648438 380.183594 431.355469 379.945312 431.042969 379.734375 C 430.730469 379.527344 430.398438 379.347656 430.046875 379.203125 C 429.699219 379.058594 429.339844 378.949219 428.96875 378.875 C 428.597656 378.804688 428.222656 378.765625 427.84375 378.765625 C 427.46875 378.765625 427.09375 378.804688 426.722656 378.875 C 426.351562 378.949219 425.992188 379.058594 425.644531 379.203125 C 425.292969 379.347656 424.960938 379.527344 424.648438 379.734375 C 424.332031 379.945312 424.042969 380.183594 423.777344 380.453125 C 423.507812 380.71875 423.269531 381.011719 423.058594 381.324219 C 422.851562 381.636719 422.671875 381.96875 422.527344 382.320312 C 422.382812 382.667969 422.273438 383.027344 422.199219 383.398438 C 422.128906 383.769531 422.089844 384.144531 422.089844 384.523438 C 422.089844 384.898438 422.128906 385.273438 422.199219 385.644531 C 422.273438 386.015625 422.382812 386.375 422.527344 386.722656 C 422.671875 387.074219 422.851562 387.40625 423.058594 387.71875 C 423.269531 388.03125 423.507812 388.324219 423.777344 388.589844 C 424.042969 388.859375 424.332031 389.097656 424.648438 389.308594 C 424.960938 389.515625 425.292969 389.695312 425.644531 389.839844 C 425.992188 389.984375 426.351562 390.09375 426.722656 390.167969 C 427.09375 390.238281 427.46875 390.277344 427.84375 390.277344 C 428.222656 390.277344 428.597656 390.238281 428.96875 390.164062 C 429.339844 390.09375 429.699219 389.984375 430.050781 389.839844 C 430.398438 389.691406 430.730469 389.515625 431.046875 389.304688 C 431.359375 389.09375 431.652344 388.855469 431.917969 388.589844 C 432.183594 388.320312 432.425781 388.03125 432.632812 387.71875 C 432.84375 387.402344 433.023438 387.070312 433.167969 386.722656 C 433.3125 386.371094 433.421875 386.011719 433.496094 385.640625 C 433.570312 385.269531 433.605469 384.894531 433.605469 384.519531 Z M 433.601562 384.523438 " fill-opacity="1" fill-rule="nonzero"/></g></svg>