<svg xmlns="http://www.w3.org/2000/svg" xmlns:xlink="http://www.w3.org/1999/xlink" width="1080" zoomAndPan="magnify" viewBox="0 0 810 809.999993" height="1080" preserveAspectRatio="xMidYMid meet" version="1.0"><defs><clipPath id="d6e0dbda57"><path d="M 346.910156 289.472656 L 463.160156 289.472656 L 463.160156 370.472656 L 346.910156 370.472656 Z M 346.910156 289.472656 " clip-rule="nonzero"/></clipPath></defs><rect x="-81" width="972" fill="#ffffff" y="-80.999999" height="971.999992" fill-opacity="1"/><rect x="-81" width="972" fill="#050a30" y="-80.999999" height="971.999992" fill-opacity="1"/><g clip-path="url(#d6e0dbda57)"><path fill="#ffffff" d="M 463.03125 345.851562 L 463.03125 364.402344 C 463.03125 367.699219 460.355469 370.375 457.058594 370.375 L 352.929688 370.375 C 349.628906 370.375 346.957031 367.699219 346.957031 364.402344 L 346.957031 345.851562 C 346.957031 337.332031 352.78125 330.175781 360.664062 328.148438 L 438.976562 328.148438 C 442.074219 328.148438 445.191406 328.25 448.296875 328.199219 C 448.671875 328.195312 449.042969 328.1875 449.417969 328.175781 C 457.253906 330.238281 463.03125 337.367188 463.03125 345.851562 Z M 370.167969 324.660156 L 370.167969 316.960938 C 370.167969 313.582031 372.90625 310.839844 376.289062 310.839844 L 396.539062 310.839844 C 399.917969 310.839844 402.660156 313.582031 402.660156 316.960938 L 402.660156 324.660156 L 407.328125 324.660156 L 407.328125 316.960938 C 407.328125 313.582031 410.066406 310.839844 413.449219 310.839844 L 433.699219 310.839844 C 437.078125 310.839844 439.820312 313.582031 439.820312 316.960938 L 439.820312 324.660156 L 448.296875 324.660156 L 448.296875 297.566406 C 448.296875 293.09375 444.671875 289.472656 440.203125 289.472656 L 369.785156 289.472656 C 365.3125 289.472656 361.691406 293.09375 361.691406 297.566406 L 361.691406 324.59375 C 364.058594 324.601562 366.429688 324.660156 368.785156 324.660156 Z M 370.167969 324.660156 " fill-opacity="1" fill-rule="nonzero"/></g></svg>